# xmcd CD database file
#
# Track frame offsets:
#	150
#	20198
#	32921
#	55810
#	83163
#	96711
#	107361
#	125788
#	145018
#	159756
#	177903
#	192955
#	215992
#	235973
#	254679
#	268747
#	290373
#
# Disc length: 4109 seconds
#
# Revision: 0
# Processed by: cddbd v1.5.1PL2 Copyright (c) Steve Scherf et al.
# Submitted via: CDex 1.51
#
DISCID=04100b11
DTITLE=Marshing mellows trio and felicitas morhart trio - jazzy meeting
DYEAR=1900
DGENRE=Jazz
TTITLE0=when the saints go marchin' in
TTITLE1=a wink and a smile
TTITLE2=black orpheus
TTITLE3=the fly
TTITLE4=i'm easy
TTITLE5=the mouse
TTITLE6=somewhere over the rainbow
TTITLE7=sweet georgia brown
TTITLE8=king herod's song
TTITLE9=sail away
TTITLE10=he knows, she knows
TTITLE11=last summer i had a dream
TTITLE12=summertime
TTITLE13=red panda boogie
TTITLE14=merdedes benz
TTITLE15=love me tender
TTITLE16=jailhouse rock
EXTD=
EXTT0=
EXTT1=
EXTT2=
EXTT3=
EXTT4=
EXTT5=
EXTT6=
EXTT7=
EXTT8=
EXTT9=
EXTT10=
EXTT11=
EXTT12=
EXTT13=
EXTT14=
EXTT15=
EXTT16=
PLAYORDER=
